<?xml version="1.0" encoding="UTF-8" standalone="no"?>
<!DOCTYPE svg PUBLIC "-//W3C//DTD SVG 1.1//EN" "http://www.w3.org/Graphics/SVG/1.1/DTD/svg11.dtd">
<svg width="100%" height="100%" viewBox="0 0 244 244" version="1.1" xmlns="http://www.w3.org/2000/svg" xmlns:xlink="http://www.w3.org/1999/xlink" xml:space="preserve" xmlns:serif="http://www.serif.com/" style="fill-rule:evenodd;clip-rule:evenodd;stroke-linejoin:round;stroke-miterlimit:2;">
    <path d="M242.949,93.714C242.067,90.999 239.72,89.02 236.895,88.61L161.915,77.71L128.385,9.769C127.121,7.209 124.514,5.588 121.66,5.588C118.805,5.588 116.198,7.209 114.934,9.769L81.404,77.71L6.422,88.61C3.596,89.021 1.249,91 0.367,93.714C-0.515,96.429 0.22,99.409 2.265,101.402L56.522,154.288L43.715,228.96C43.233,231.774 44.389,234.618 46.698,236.295C49.007,237.973 52.069,238.195 54.596,236.866L121.66,201.612L188.723,236.866C189.82,237.443 191.019,237.727 192.212,237.727L192.234,237.727C196.376,237.727 199.734,234.369 199.734,230.227C199.734,229.598 199.656,228.987 199.511,228.403L186.798,154.286L241.052,101.401C243.096,99.41 243.832,96.429 242.949,93.714ZM173.504,146.299C171.736,148.022 170.929,150.505 171.347,152.938L182.253,216.519L125.151,186.501C122.966,185.352 120.356,185.352 118.172,186.501L61.069,216.519L71.975,152.938C72.393,150.505 71.586,148.023 69.818,146.299L23.619,101.268L87.466,91.987C89.909,91.632 92.021,90.098 93.113,87.884L121.663,30.035L150.213,87.884C151.305,90.097 153.417,91.632 155.859,91.987L219.703,101.268L173.504,146.299Z" style="fill:rgb(255,242,0);fill-rule:nonzero;"/>
</svg>
