<?xml version="1.0" encoding="UTF-8" standalone="no"?>
<!DOCTYPE svg PUBLIC "-//W3C//DTD SVG 1.1//EN" "http://www.w3.org/Graphics/SVG/1.1/DTD/svg11.dtd">
<svg width="100%" height="100%" viewBox="0 0 479 479" version="1.1" xmlns="http://www.w3.org/2000/svg" xmlns:xlink="http://www.w3.org/1999/xlink" xml:space="preserve" xmlns:serif="http://www.serif.com/" style="fill-rule:evenodd;clip-rule:evenodd;stroke-linejoin:round;stroke-miterlimit:2;">
    <g>
        <g>
            <path d="M477.795,184.279C476.03,178.848 471.337,174.89 465.687,174.07L318.528,152.686L252.716,19.336C250.189,14.216 244.975,10.975 239.265,10.975C233.555,10.975 228.341,14.216 225.814,19.336L160.002,152.686L12.843,174.07C7.193,174.89 2.499,178.848 0.735,184.279C-1.03,189.709 0.442,195.67 4.531,199.655L111.015,303.453L85.877,450.018C84.912,455.645 87.226,461.332 91.845,464.689C96.463,468.043 102.586,468.488 107.642,465.831L239.265,396.632L370.888,465.831C373.083,466.984 375.48,467.554 377.867,467.554C380.977,467.554 384.072,466.588 386.685,464.69C391.304,461.334 393.618,455.646 392.653,450.019L367.515,303.454L473.999,199.656C478.088,195.669 479.56,189.708 477.795,184.279Z" style="fill:rgb(255,247,0);fill-rule:nonzero;"/>
        </g>
    </g>
</svg>
