<?xml version="1.0" encoding="UTF-8" standalone="no"?>
<!DOCTYPE svg PUBLIC "-//W3C//DTD SVG 1.1//EN" "http://www.w3.org/Graphics/SVG/1.1/DTD/svg11.dtd">
<svg width="100%" height="100%" viewBox="0 0 36 36" version="1.1" xmlns="http://www.w3.org/2000/svg" xmlns:xlink="http://www.w3.org/1999/xlink" xml:space="preserve" xmlns:serif="http://www.serif.com/" style="fill-rule:evenodd;clip-rule:evenodd;stroke-linejoin:round;stroke-miterlimit:2;">
    <rect x="0" y="0" width="36" height="36" style="fill-opacity:0;"/>
    <path d="M34,16.78C34.562,16.361 34.894,15.7 34.894,15C34.894,13.796 33.914,12.8 32.71,12.78L23.71,12.44C23.62,12.434 23.541,12.375 23.51,12.29L20.4,3.89C20.081,3.017 19.245,2.432 18.315,2.432C17.385,2.432 16.549,3.017 16.23,3.89L13.13,12.32C13.099,12.405 13.02,12.464 12.93,12.47L3.93,12.81C2.726,12.83 1.746,13.826 1.746,15.03C1.746,15.73 2.078,16.391 2.64,16.81L9.7,22.36C9.772,22.417 9.804,22.511 9.78,22.6L7.35,31.21C7.293,31.409 7.264,31.616 7.264,31.823C7.264,33.041 8.266,34.043 9.484,34.043C9.928,34.043 10.362,33.909 10.73,33.66L18.19,28.66C18.265,28.608 18.365,28.608 18.44,28.66L25.9,33.66C26.661,34.202 27.689,34.202 28.45,33.66C29.205,33.118 29.539,32.153 29.28,31.26L26.83,22.62C26.803,22.531 26.836,22.435 26.91,22.38L34,16.78ZM24.9,23.11L27.35,31.75C27.362,31.778 27.368,31.807 27.368,31.837C27.368,31.958 27.269,32.057 27.148,32.057C27.093,32.057 27.04,32.037 27,32L19.54,27C19.174,26.752 18.742,26.62 18.3,26.62L18.3,4.44C18.397,4.432 18.486,4.496 18.51,4.59L21.62,13C21.927,13.846 22.72,14.425 23.62,14.46L32.62,14.8C32.621,14.8 32.622,14.8 32.624,14.8C32.744,14.8 32.844,14.899 32.844,15.02C32.844,15.092 32.809,15.159 32.75,15.2L25.69,20.75C24.968,21.298 24.654,22.238 24.9,23.11Z" style="fill:rgb(255,232,0);fill-rule:nonzero;"/>
</svg>
